<svg width="45" height="45" viewBox="0 0 45 45" fill="none" xmlns="http://www.w3.org/2000/svg">
<rect width="45" height="45" rx="22.5" fill="#E9222B"/>
<path d="M28.3333 11.6667C30.654 11.6667 32.8796 12.5886 34.5205 14.2296C36.1615 15.8705 37.0833 18.0961 37.0833 20.4167V30.6251H31.25V20.4167C31.25 19.6432 30.9427 18.9013 30.3957 18.3544C29.8488 17.8074 29.1069 17.5001 28.3333 17.5001C27.5598 17.5001 26.8179 17.8074 26.2709 18.3544C25.724 18.9013 25.4167 19.6432 25.4167 20.4167V30.6251H19.5833V20.4167C19.5833 18.0961 20.5052 15.8705 22.1462 14.2296C23.7871 12.5886 26.0127 11.6667 28.3333 11.6667Z" fill="white"/>
<path d="M13.75 13.125H7.91666V30.625H13.75V13.125Z" fill="white"/>
</svg>
