<svg width="45" height="45" viewBox="0 0 45 45" fill="none" xmlns="http://www.w3.org/2000/svg">
<rect width="45" height="45" rx="22.5" fill="#E9222B"/>
<path d="M29.7917 7.91675H15.2083C11.1812 7.91675 7.91666 11.1813 7.91666 15.2084V29.7917C7.91666 33.8188 11.1812 37.0834 15.2083 37.0834H29.7917C33.8187 37.0834 37.0833 33.8188 37.0833 29.7917V15.2084C37.0833 11.1813 33.8187 7.91675 29.7917 7.91675Z" fill="white"/>
<path d="M28.3333 21.5812C28.5133 22.7949 28.306 24.0344 27.7409 25.1235C27.1758 26.2126 26.2817 27.0958 25.1857 27.6474C24.0897 28.199 22.8477 28.391 21.6364 28.1961C20.425 28.0012 19.3059 27.4292 18.4383 26.5616C17.5707 25.694 16.9988 24.575 16.8039 23.3636C16.6089 22.1522 16.8009 20.9102 17.3526 19.8142C17.9042 18.7183 18.7874 17.8242 19.8764 17.2591C20.9655 16.694 22.2051 16.4866 23.4188 16.6666C24.6568 16.8502 25.8029 17.4271 26.6879 18.3121C27.5729 19.197 28.1498 20.3432 28.3333 21.5812Z" fill="#E9222B"/>
<circle cx="31" cy="14" r="2" fill="#E9222B"/>
</svg>
