<svg width="277" height="70" viewBox="0 0 277 70" fill="none" xmlns="http://www.w3.org/2000/svg">
<g clip-path="url(#clip0_262_1843)">
<path d="M126.937 0C127.598 0.151667 128.279 0.101111 128.948 0.167222C131.658 0.423889 134.291 0.976111 136.761 2.15056C141.548 4.42944 144.313 8.225 145.028 13.4633C146.036 20.8444 142.664 29.26 136.901 33.8761C134.194 36.0422 131.087 37.3956 127.769 38.2978C125.117 39.0211 122.414 39.4956 119.688 39.8144C119.622 39.8222 119.552 39.8378 119.439 39.8572C120.824 41.0006 120.991 42.6067 121.166 44.1817C121.582 47.9578 123.464 50.8278 126.603 52.85C129.263 54.565 131.919 53.9778 134.209 51.8972C134.439 51.6872 134.33 51.625 134.108 51.5433C133.284 51.2361 132.545 50.7772 131.88 50.1978C130.725 49.1983 130.177 47.9656 130.313 46.4217C130.476 44.5628 131.067 42.8983 132.417 41.5722C133.63 40.3783 135.298 40.0944 136.601 40.8139C136.916 40.985 137.204 41.1989 137.359 41.5256C137.484 41.7939 137.667 41.9106 137.943 42C139.541 42.5094 140.338 43.6994 140.622 45.2783C140.684 45.6206 140.801 45.7411 141.132 45.7139C141.466 45.6867 141.859 45.8033 142.119 45.6011C142.384 45.395 142.228 44.9944 142.279 44.6794C142.679 42.1556 143.379 39.7094 144.204 37.2944C145.635 33.1022 147.331 29.0267 149.699 25.2622C150.535 23.9361 151.449 22.6644 152.604 21.595C153.436 20.8211 154.334 20.09 155.521 20.0239C157.317 19.9228 158.989 20.3583 160.417 21.5094C161.229 22.1628 161.331 23.0611 161.136 24.01C160.794 25.6744 160.032 27.1678 159.18 28.6144C156.252 33.5728 152.794 38.1344 148.824 42.3033C148.174 42.9878 147.49 43.6372 146.813 44.2983C146.708 44.3994 146.631 44.5083 146.58 44.6444C146.218 45.64 145.915 46.6472 145.861 47.7167C145.853 47.8567 145.849 47.9967 145.861 48.1406C145.88 48.4672 145.985 48.7667 146.312 48.895C146.615 49.0194 146.852 48.825 147.066 48.6344C148.12 47.7011 148.808 46.5072 149.442 45.2744C149.52 45.1267 149.462 45.0022 149.423 44.87C148.777 42.7272 150.803 41.195 152.378 41.6189C153.312 41.8678 154.14 42.1672 154.377 43.2328C154.498 43.7811 154.439 44.3333 154.245 44.8544C154.117 45.1967 154.233 45.3056 154.544 45.3483C154.937 45.4067 155.33 45.4456 155.719 45.3483C156.224 45.2278 156.582 45.0372 156.781 44.4422C157.368 42.6883 158.577 41.4439 160.281 40.7089C160.732 40.5144 161.206 40.4794 161.684 40.6156C162.785 40.9306 163.722 41.4983 164.426 42.4122C165.146 43.3456 165.173 44.0689 164.516 45.0489C163.687 46.2894 162.641 47.3317 161.525 48.3078C161.42 48.3972 161.319 48.4906 161.179 48.6111C161.712 48.8367 162.209 48.72 162.688 48.6111C164.628 48.1561 166.32 47.1878 167.914 46.0289C168.292 45.7567 168.646 45.4533 169.019 45.1772C169.252 45.0022 169.287 44.8972 168.972 44.7689C168.443 44.555 167.984 44.2322 167.631 43.7733C167.043 43.0111 166.997 42.2411 167.483 41.4206C167.642 41.1522 167.813 40.8956 168.031 40.6739C168.727 39.9544 169.661 39.8028 170.396 40.2928C171.15 40.7983 171.453 41.8717 171.072 42.735C170.994 42.9139 170.893 43.0889 170.773 43.2406C170.606 43.4467 170.691 43.5244 170.893 43.5906C171.204 43.6878 171.516 43.6411 171.811 43.5556C172.449 43.365 173.059 43.1161 173.526 42.6067C173.686 42.4317 173.899 42.4161 174.109 42.4317C174.864 42.49 175.525 42.7778 176.104 43.26C176.661 43.7228 176.847 44.2867 176.602 44.9944C176.283 45.9278 175.859 46.8183 175.439 47.7089C175.296 48.0122 175.167 48.3272 175.027 48.6344C174.879 48.965 174.907 49.2878 175.043 49.6144C175.381 50.4311 175.766 50.5906 176.54 50.1744C178.621 49.0544 180.215 47.4483 181.3 45.3483C181.634 44.6989 181.988 44.0611 182.198 43.3494C182.311 42.9722 182.159 42.9606 181.86 42.9956C180.526 43.1511 179.247 42.9567 178.057 42.3228C177.407 41.9767 177.154 41.3778 177.361 40.7322C177.676 39.7483 178.834 39.4528 179.558 40.1956C180.347 41.0044 181.354 41.1833 182.408 41.2728C182.712 41.3 182.696 41.0511 182.739 40.8761C183.167 39.1106 183.649 37.3606 184.205 35.6339C185.438 31.7994 186.791 28.0078 188.782 24.4844C189.471 23.2672 190.202 22.0811 191.275 21.1478C192.236 20.3156 193.247 20.1678 194.227 20.7083C195.059 21.1672 195.249 21.77 194.806 22.61C194.654 22.8978 194.479 23.17 194.297 23.4383C193.744 24.255 193.169 25.0561 192.628 25.8806C190.159 29.6567 188.471 33.7906 187.056 38.0528C186.822 38.7606 186.597 39.4722 186.379 40.1839C186.336 40.3239 186.196 40.4911 186.328 40.6117C186.429 40.705 186.593 40.5961 186.725 40.5689C187.853 40.3278 188.961 39.9856 190.132 40.0244C190.75 40.0439 191.232 40.4639 191.329 41.0706C191.419 41.6383 191.081 42.2139 190.536 42.4161C190.233 42.5289 189.929 42.49 189.622 42.4083C188.428 42.0894 187.219 42.2256 186.009 42.2994C185.823 42.3111 185.788 42.4278 185.745 42.5717C184.963 45.1617 184.291 47.775 184.084 50.4856C184.077 50.5983 184.053 50.7072 184.042 50.82C183.956 51.4539 183.929 52.08 184.279 52.6633C184.431 52.9161 184.508 53.2078 184.555 53.5033C184.629 53.9544 184.473 54.2267 184.018 54.3044C182.576 54.5494 181.841 54.1489 181.316 52.8461C181.02 52.1072 181.024 51.3333 181.09 50.5556C181.098 50.4778 181.106 50.4 181.121 50.2444C180.919 50.4311 180.767 50.5711 180.616 50.7111C178.601 52.5622 176.295 52.7878 173.958 51.3567C173.277 50.9406 172.702 50.4039 172.165 49.8244C171.364 48.9611 171.282 47.9422 171.543 46.8611C171.683 46.2894 171.854 45.7217 172.021 45.1033C171.589 45.1578 171.193 45.2161 170.788 45.2122C170.547 45.2122 170.528 45.4378 170.446 45.5933C169.439 47.53 168.109 49.1906 166.429 50.5983C164.831 51.9361 163.186 52.1811 161.331 51.1739C159.822 50.3572 158.488 49.3539 157.438 47.9889C157.189 47.6622 156.967 47.3161 156.827 46.9311C156.749 46.7211 156.679 46.6667 156.477 46.8106C155.641 47.4056 154.723 47.6972 153.689 47.4639C153.459 47.4133 153.362 47.5378 153.261 47.705C152.744 48.5644 152.141 49.3617 151.499 50.1278C150.531 51.2828 149.345 51.6367 147.906 51.1856C146.008 50.5906 144.441 49.5172 143.189 47.9811C143.029 47.7867 142.917 47.7244 142.672 47.8294C141.995 48.1172 141.279 48.2767 140.552 48.3739C140.334 48.405 140.202 48.4789 140.097 48.6772C139.459 49.875 138.581 50.8278 137.352 51.4539C136.986 51.6406 136.706 51.9906 136.379 52.2589C134.843 53.515 133.175 54.5067 131.188 54.8489C129.554 55.1289 127.964 54.8839 126.401 54.3939C124.203 53.7017 122.263 52.57 120.583 50.9911C118.841 49.3578 117.969 47.3278 117.814 44.9633C117.783 44.4889 117.713 44.0106 117.612 43.5439C117.196 41.7006 115.803 40.5806 113.894 40.5222C113.217 40.5028 112.544 40.5533 111.868 40.6C111.627 40.6156 111.533 40.7556 111.436 40.9344C109.927 43.7811 108.411 46.6278 106.902 49.4744C106.26 50.6839 105.669 51.9128 105.412 53.2739C105.393 53.3711 105.377 53.4683 105.369 53.5656C105.296 54.2694 105.062 54.4406 104.362 54.2733C103.907 54.1644 103.483 53.9778 103.087 53.7289C102.204 53.1767 101.426 52.5194 100.921 51.5861C100.738 51.2517 100.714 50.9444 100.858 50.5828C101.57 48.7744 102.375 47.0089 103.196 45.2472C107.038 37.0183 111.043 28.875 115.465 20.9378C116.542 19.005 117.651 17.0917 118.934 15.2872C119.704 14.2022 120.622 13.2689 121.87 12.7478C123.429 12.0944 125.02 12.0906 126.607 12.67C126.673 12.6933 126.735 12.7283 126.797 12.7594C127.167 12.9578 127.182 13.0511 126.898 13.3428C125.432 14.84 124.192 16.5122 123.041 18.2544C120.89 21.5017 119.086 24.9394 117.39 28.4394C115.932 31.4417 114.637 34.5139 113.264 37.555C113.237 37.6172 113.213 37.6833 113.163 37.8194C113.913 37.7572 114.617 37.7261 115.317 37.6406C119.42 37.1467 123.375 36.0772 127.19 34.4944C131.227 32.8183 134.163 29.9056 136.449 26.2656C138.168 23.5317 139.37 20.5878 139.848 17.3794C140.257 14.6183 140.078 11.9233 138.748 9.40333C137.476 7 135.438 5.45611 132.992 4.41C130.048 3.15 126.984 2.77667 123.811 3.20056C119.863 3.72944 116.192 5.03222 112.778 7.07C112.062 7.49778 111.417 8.015 110.826 8.61C110.071 9.37222 109.134 9.46556 108.337 8.91333C107.625 8.41556 107.481 7.73889 107.967 7.01167C108.403 6.35444 109.006 5.85667 109.659 5.44056C113.937 2.72611 118.557 0.933333 123.589 0.260556C124.281 0.167222 124.981 0.0972222 125.673 0.0155556C126.097 0.0155556 126.517 0.0155556 126.941 0.0155556L126.937 0ZM147.638 40.6194C147.665 40.6389 147.696 40.6583 147.723 40.6778C147.863 40.5222 148.007 40.3667 148.143 40.2111C151.165 36.7189 153.806 32.9467 156.228 29.0228C157.096 27.6189 157.889 26.18 158.429 24.6128C158.558 24.2394 158.667 23.8583 158.647 23.4578C158.636 23.2089 158.573 22.9639 158.332 22.855C158.111 22.7539 157.928 22.9094 157.764 23.0456C157.636 23.1544 157.512 23.2711 157.399 23.3956C156.738 24.1306 156.186 24.9472 155.661 25.7833C152.872 30.2244 150.492 34.8872 148.147 39.5694C147.972 39.9156 147.809 40.2694 147.638 40.6194ZM135.31 44.1972C134.404 44.7806 133.712 45.5311 133.42 46.5889C133.008 48.09 133.953 49.4628 135.501 49.6183C135.777 49.6456 136.076 49.6611 136.282 49.4161C136.523 49.1244 136.749 48.8172 136.986 48.5178C137.118 48.3506 137.13 48.2417 136.897 48.1406C136.504 47.9733 136.162 47.7283 135.878 47.4056C135.042 46.4606 134.886 45.3911 135.31 44.1972ZM159.658 46.935C159.682 47.1372 159.662 47.4056 159.861 47.495C160.028 47.5728 160.168 47.3433 160.3 47.2267C161.331 46.3206 162.221 45.29 163.011 44.1661C163.108 44.03 163.178 43.8744 163.252 43.7228C163.306 43.6178 163.329 43.505 163.244 43.4039C163.151 43.295 163.022 43.2911 162.894 43.3417C162.762 43.3922 162.626 43.4311 162.501 43.4972C161.354 44.1117 160.463 44.9867 159.88 46.1611C159.759 46.4022 159.686 46.6589 159.658 46.935Z" fill="white"/>
<path d="M276.103 46.2619C275.878 45.0253 274.987 44.5003 273.867 44.2203C273.498 44.1269 273.128 44.0375 272.778 43.8936C272.393 43.7342 272.358 43.4697 272.638 43.1664C272.86 42.9253 273.148 42.7697 273.424 42.6025C273.821 42.3653 274.244 42.163 274.587 41.8403C274.995 41.4553 274.976 41.0858 274.528 40.7475C274.136 40.4558 273.7 40.2769 273.202 40.2692C272.067 40.2497 271.126 40.6969 270.309 41.4553C269.422 42.2836 268.66 43.2325 267.855 44.1347C266.338 45.8264 264.752 47.4403 262.943 48.8286C262.64 49.0619 262.325 49.2758 261.948 49.3731C261.609 49.4586 261.454 49.3069 261.543 48.9686C261.594 48.7819 261.676 48.5953 261.773 48.4281C262.313 47.4558 262.889 46.5031 263.402 45.5192C263.947 44.4808 263.737 43.8431 262.729 43.2247C262.438 43.0458 262.127 42.9097 261.792 42.8514C261.357 42.7736 260.976 42.7736 260.583 43.1197C260.019 43.6136 259.303 43.8742 258.553 43.9869C258.389 44.0103 258.211 44.0064 258.051 43.9714C257.829 43.9247 257.728 43.8081 257.931 43.5981C258.137 43.3842 258.304 43.1431 258.428 42.8708C258.774 42.0969 258.615 41.1636 258.051 40.6931C257.495 40.2303 256.604 40.2575 255.893 40.7786C255.411 41.1325 255.022 41.5797 254.714 42.0892C254.209 42.9292 254.329 43.8081 255.01 44.5197C255.333 44.8581 255.745 45.0603 256.153 45.2897C256.103 45.3442 256.083 45.3831 256.048 45.4064C255.823 45.5736 255.597 45.7447 255.368 45.9042C253.474 47.2225 251.491 48.3581 249.231 48.9375C248.691 49.0775 248.142 49.1631 247.578 49.0269C247.621 48.8364 247.773 48.7936 247.878 48.7081C249.204 47.6775 250.483 46.5925 251.522 45.2586C252.264 44.3019 252.261 43.4425 251.522 42.4858C250.934 41.7275 250.157 41.2375 249.235 40.9731C248.893 40.8758 248.527 40.8447 248.193 40.9614C245.906 41.7781 244.246 43.2519 243.472 45.6008C243.363 45.9236 243.238 46.0986 242.904 46.1531C242.122 46.2736 241.364 46.2075 240.621 45.9353C240.294 45.8147 240.193 45.6825 240.388 45.3247C240.761 44.6442 241.053 43.9247 240.994 43.1158C240.956 42.5519 240.633 42.1164 240.131 41.9842C239.548 41.8325 238.98 41.8792 238.467 42.2175C237.615 42.7736 236.993 43.5203 236.674 44.4964C236.452 45.1692 236.378 45.8614 236.744 46.5031C236.884 46.7519 236.814 46.8764 236.651 47.0397C236.083 47.6114 235.507 48.1675 234.893 48.6886C234.656 48.8908 234.414 49.0853 234.127 49.2136C233.948 49.2914 233.761 49.3886 233.574 49.2331C233.392 49.0814 233.415 48.8675 233.473 48.6847C233.574 48.3658 233.699 48.0469 233.854 47.7475C234.306 46.8725 234.78 46.0092 235.235 45.1342C235.398 44.8231 235.589 44.4692 235.457 44.1269C235.013 42.9681 234.274 42.0503 233.084 41.5797C232.758 41.4514 232.416 41.4825 232.139 41.7508C231.455 42.4236 230.802 43.1236 230.374 43.9986C230.284 44.1775 230.183 44.3408 230.043 44.4847C229.363 45.2003 228.698 45.9275 228.002 46.6236C227.352 47.2692 226.691 47.9031 225.917 48.4047C225.785 48.4903 225.618 48.6614 225.47 48.5175C225.346 48.3969 225.489 48.2219 225.567 48.1014C225.828 47.6853 226.112 47.2808 226.38 46.8686C227.076 45.7914 227.904 44.8075 228.499 43.6642C228.752 43.1819 228.717 42.758 228.398 42.3264C227.858 41.5953 227.189 41.0275 226.337 40.7008C225.61 40.4208 225.322 40.4986 224.828 41.1014C223.825 42.3303 222.981 43.6719 222.359 45.1225C222.04 45.8692 221.546 46.0831 220.842 46.0986C220.729 46.0986 220.617 46.0908 220.504 46.0986C220.131 46.1414 220.002 46.0169 219.998 45.6125C219.979 44.2358 219.38 42.8086 217.673 42.3186C217.529 42.2758 217.428 42.2331 217.373 42.0697C217.124 41.3308 216.529 41.0003 215.818 40.8642C214.737 40.6581 213.741 40.9419 212.862 41.5681C210.933 42.9408 209.907 44.8697 209.456 47.1564C209.199 48.4514 209.545 49.5481 210.439 50.4969C211.101 51.1931 211.886 51.6986 212.792 52.0175C213.694 52.3364 214.569 52.3325 215.464 51.963C216.584 51.5003 217.607 50.8742 218.287 49.8903C218.894 49.0153 219.633 48.6031 220.652 48.5058C220.959 48.4786 220.99 48.5369 220.955 48.7858C220.881 49.3069 221.087 49.7153 221.461 50.0653C222.063 50.6292 222.748 51.0608 223.514 51.3758C224.14 51.6325 224.7 51.543 225.213 51.1308C225.641 50.7886 226.065 50.4347 226.477 50.073C227.434 49.2369 228.254 48.2647 229.149 47.3664C229.223 47.2886 229.297 47.1642 229.421 47.1992C229.546 47.2342 229.495 47.3664 229.495 47.4558C229.503 49.3381 230.533 50.5747 232.042 51.5119C232.419 51.7453 232.82 51.7997 233.259 51.7181C234.057 51.5703 234.741 51.1931 235.379 50.7186C236.351 49.9914 237.249 49.1786 238.093 48.3075C238.268 48.1286 238.397 48.0897 238.634 48.1947C239.357 48.5136 240.112 48.6031 240.905 48.4903C241.726 48.3697 242.484 48.0897 243.203 47.6892C243.347 47.6114 243.464 47.4792 243.584 47.7475C244.261 49.2331 245.369 50.3297 246.727 51.1931C248.869 52.5542 250.207 52.5192 252.288 51.0764C254.294 49.6842 255.928 47.9342 257.277 45.9081C257.359 45.7836 257.402 45.5775 257.581 45.5892C258.001 45.6086 258.413 45.4919 258.837 45.4881C258.837 45.7019 258.724 45.8536 258.658 46.0208C258.424 46.5925 258.141 47.1447 257.969 47.7436C257.604 49.0464 257.888 49.8942 258.965 50.7069C259.428 51.0608 259.961 51.2825 260.489 51.5158C261.889 52.1303 263.103 51.8853 264.211 50.8469C265.242 49.8786 266.163 48.8169 267.027 47.7008C267.843 46.6431 268.563 45.5075 269.426 44.4808C269.613 44.2592 269.702 44.2281 269.858 44.5158C270.138 45.0408 270.562 45.4297 271.126 45.6436C271.802 45.9042 272.086 46.4292 272.129 47.1175C272.187 48.0781 271.907 48.9492 271.429 49.7697C270.919 50.6486 270.138 51.0297 269.146 51.0297C268.477 51.0297 267.968 50.6525 267.847 49.9953C267.769 49.5753 267.552 49.4469 267.174 49.4975C266.786 49.5519 266.587 49.8008 266.622 50.2053C266.657 50.6292 266.844 50.9947 267.12 51.3019C268.221 52.5114 269.621 52.9353 271.184 52.6242C273.894 52.0836 275.539 50.4153 276.088 47.6892C276.096 47.6503 276.103 47.6114 276.111 47.5725C276.193 47.0903 276.123 46.4719 276.096 46.2542L276.103 46.2619ZM215.919 48.8364C215.421 49.3614 214.892 49.8436 214.219 50.1314C213.551 50.4192 213.096 50.1469 213.002 49.4119C212.936 48.8675 213.068 48.3503 213.247 47.8447C213.512 47.1058 213.858 46.4136 214.367 45.7369C214.503 46.1531 214.601 46.5186 214.744 46.8608C214.997 47.4792 215.367 48.0275 215.88 48.4631C216.024 48.5875 216.071 48.6731 215.919 48.8325V48.8364ZM246.618 47.7864C246.548 47.8408 246.454 47.9419 246.361 47.8603C246.264 47.7747 246.256 47.6347 246.248 47.4831C246.276 47.2069 246.369 46.9269 246.524 46.6703C247.302 45.3947 248.391 44.4692 249.729 43.8197C249.768 43.8003 249.807 43.7886 249.849 43.7769C250.024 43.7147 250.231 43.6214 250.363 43.7692C250.511 43.9364 250.351 44.1192 250.242 44.2592C249.196 45.5969 247.971 46.7597 246.618 47.7825V47.7864Z" fill="white"/>
<path d="M212.889 0.237126C217.91 0.217682 222.74 1.11213 227.278 3.34046C229.763 4.56157 232.054 6.07046 233.897 8.16268C236.355 10.951 237.673 14.2293 237.697 17.9471C237.736 24.1149 235.523 29.4349 231.245 33.841C228.13 37.0493 224.226 38.8771 219.87 39.7443C215.363 40.6427 210.91 40.3355 206.516 39.021C205.874 38.8305 206.026 38.7643 205.695 39.4021C204.225 42.2255 203.117 45.181 202.397 48.2805C202.137 49.4044 201.829 50.5243 201.934 51.6949C201.954 51.9321 201.962 52.1771 202.024 52.4066C202.129 52.7877 201.973 52.881 201.623 52.8732C200.733 52.846 199.951 52.5077 199.22 52.0371C197.723 51.0766 197.311 49.906 197.676 47.9343C198.244 44.8816 199.321 42.0077 200.577 39.1843C202.518 34.8249 204.462 30.4693 206.609 26.2071C207.305 24.8227 208.013 23.446 208.884 22.1588C210 20.5138 211.921 19.8021 213.846 20.3038C214.328 20.4282 214.352 20.4866 214.126 20.9221C212.52 24.0255 211.151 27.2338 209.72 30.4188C208.717 32.651 207.729 34.8949 206.733 37.131C206.516 37.621 206.516 37.6055 207.052 37.7299C210.509 38.5427 213.877 38.1071 217.198 37.026C223.117 35.0971 227.465 31.286 230.386 25.8416C231.591 23.5938 232.521 21.2177 232.843 18.651C233.302 15.0421 232.287 11.9077 229.779 9.27879C227.698 7.09324 225.097 5.74768 222.285 4.76768C218.972 3.61657 215.573 2.96324 212.049 3.16157C204.762 3.5699 198.633 6.47879 193.608 11.756C193.492 11.8766 193.371 11.9971 193.231 12.0943C192.687 12.4677 192.201 12.3782 191.804 11.8416C191.065 10.8382 191.1 9.25546 191.971 8.3649C193.414 6.89102 194.969 5.54546 196.844 4.62768C198.749 3.69435 200.651 2.74546 202.631 1.9599C205.357 0.882682 208.192 0.349904 211.112 0.248793C211.703 0.229348 212.294 0.248793 212.886 0.248793L212.889 0.237126Z" fill="white"/>
<path d="M92.5906 44.8547C92.4311 44.2869 91.9217 44.1275 91.49 44.528C91.2217 44.7769 90.9922 45.0647 90.7667 45.3525C89.6739 46.7214 88.5072 48.0202 87.1617 49.1441C86.9361 49.3347 86.6911 49.5019 86.4422 49.6614C86.2867 49.7625 86.0922 49.8325 85.925 49.7158C85.7422 49.5914 85.7306 49.3814 85.7811 49.1791C85.8394 48.9458 85.8978 48.7164 85.9639 48.4869C86.3761 47.083 86.87 45.7064 87.22 44.283C87.4067 43.5325 87.1694 42.9569 86.5628 42.5097C86.1428 42.1986 85.6878 41.9497 85.1939 41.7669C83.9533 41.3041 83.6383 41.3897 82.7983 42.4047C81.6006 43.8475 80.5583 45.4069 79.4072 46.8886C79.1972 47.1608 79.0106 47.4602 78.6411 47.713C78.7811 47.0052 78.9056 46.3791 79.0261 45.7491C79.3839 43.8747 78.47 42.7158 77.0039 41.9964C76.4128 41.7086 76.0822 41.833 75.705 42.3736C75.2733 42.988 74.9894 43.6997 74.9739 44.4191C74.9467 45.7375 74.2428 46.5347 73.255 47.2464C72.2361 47.9775 71.2872 48.8019 70.1322 49.323C69.9611 49.4008 69.755 49.5252 69.5839 49.3386C69.4322 49.1752 69.4983 48.9691 69.5683 48.7786C69.7628 48.2614 70.0467 47.7908 70.3033 47.3086C70.7739 46.4297 71.2639 45.5547 71.7267 44.668C71.89 44.3569 72.0806 43.9952 71.9094 43.6608C71.3339 42.5564 70.5911 41.5919 69.405 41.0747C69.0083 40.9036 68.6078 40.9502 68.2306 41.1758C67.7522 41.4597 67.3556 41.833 66.9706 42.2297C65.4695 43.7814 64.1278 45.4691 62.7472 47.1219C62.6461 47.2425 62.5683 47.4058 62.37 47.4564C62.3039 47.3008 62.3272 47.1647 62.3583 47.0325C62.4983 46.4569 62.6461 45.8852 62.7783 45.3097C62.8367 45.0491 62.9806 44.8586 63.1711 44.6758C65.0572 42.8986 66.8889 41.063 68.6467 39.1536C71.3689 36.198 73.99 33.1569 76.2144 29.8008C77.0778 28.498 77.8789 27.1525 78.3222 25.6358C78.4972 25.0408 78.5517 24.4419 78.2639 23.8625C77.5872 22.5208 76.58 21.5058 75.215 20.8758C73.7139 20.1836 72.2789 20.2458 70.9294 21.2958C70.0544 21.9802 69.3311 22.8008 68.6739 23.6875C66.6167 26.468 65.0844 29.5364 63.7311 32.7019C62.0628 36.5986 60.6394 40.5847 59.5739 44.6914C59.2861 45.7919 59.2006 45.8736 58.0572 45.8658C58.0028 45.8658 57.9444 45.858 57.89 45.8619C57.6372 45.8814 57.5244 45.7841 57.4778 45.5119C57.3222 44.6369 56.9411 43.8552 56.35 43.1825C56.2839 43.1086 56.2178 43.0308 56.1789 42.9452C55.3661 41.2069 53.9117 40.503 52.0839 40.3591C50.5478 40.2386 49.0194 40.3125 47.4872 40.4252C47.0322 40.4602 46.5772 40.4875 46.0678 40.5225C46.5228 39.8225 46.9661 39.1925 47.3589 38.5314C50.1511 33.8414 52.2239 28.8247 53.9506 23.668C55.0044 20.518 55.7122 17.2902 55.6656 13.938C55.6344 11.7369 55.2456 9.62136 54.1839 7.67302C52.7489 5.03635 50.5322 3.26302 47.7944 2.14302C43.7733 0.482466 39.5539 0.0702433 35.2761 0.64191C29.6567 1.39635 24.8694 3.95524 21.0506 8.10469C15.3183 14.3308 13.7122 21.6069 16.1856 29.6997C17.4844 33.9502 20.1717 37.1236 24.2122 39.0875C27.125 40.5069 30.135 41.6075 33.3667 42.0741C33.25 42.1364 33.1333 42.183 33.0167 42.2025C29.8511 42.7236 26.6972 43.3069 23.5628 43.9875C18.3439 45.1191 13.2806 46.6941 8.53222 49.1791C7.06222 49.9491 5.57278 50.6919 4.305 51.7964C2.38389 53.4686 0.902223 55.4325 0.248889 57.9369C0.190556 58.1625 0.143889 58.388 0.101112 58.6175C0.0700006 58.8236 -0.186666 60.7019 0.276112 62.8952C1.40389 66.9902 4.41778 69.518 8.575 69.9497C8.645 69.9575 9.11945 69.9925 9.57445 69.9964C9.99445 69.9964 10.395 69.9691 10.4378 69.9652C13.825 69.6775 16.9867 68.6547 19.9656 67.033C22.68 65.5552 25.0522 63.5952 27.4672 61.7091C30.3411 59.4614 32.8067 56.7819 35.2567 54.0947C37.2206 51.9403 39.235 49.8247 40.8644 47.3902C41.86 45.9008 42.9256 44.4658 44.0183 43.0502C44.2206 42.7858 44.4383 42.638 44.7806 42.6108C45.2861 42.5719 45.7839 42.463 46.2856 42.4086C47.2189 42.3114 48.1289 42.0352 49.0933 42.1052C49.0817 42.1558 49.0817 42.2025 49.0622 42.2297C48.2922 43.2991 47.8917 44.5047 47.7556 45.7997C47.6311 47.0091 47.67 48.2069 48.44 49.2375C49.3889 50.5091 50.6294 51.3764 52.1617 51.8002C52.7956 51.9752 53.4294 52.0064 54.0672 51.7575C55.475 51.2169 56.4278 50.2136 57.0733 48.8797C57.1589 48.7047 57.2056 48.518 57.4506 48.4752C57.8511 48.4091 58.2517 48.3236 58.6483 48.2302C58.8661 48.1758 58.8856 48.2808 58.8778 48.448C58.8661 48.7708 58.8467 49.0975 58.8544 49.4202C58.8622 49.9997 59.115 50.4547 59.6245 50.7425C60.6589 51.3258 62.4283 51.0302 63.2178 50.1397C63.8089 49.4786 64.3883 48.8058 64.9794 48.1408C65.3683 47.7014 65.765 47.2697 66.1889 46.7991C66.2239 47.0675 66.2394 47.2891 66.2822 47.503C66.7411 49.7314 69.2261 51.843 72.0339 51.1158C73.0333 50.8552 73.8539 50.3069 74.6044 49.6341C74.8067 49.4552 74.9117 49.4086 75.0594 49.6925C75.25 50.0619 75.5495 50.3497 75.915 50.548C77.5172 51.4152 77.8206 51.143 78.75 50.163C79.8817 48.973 80.8072 47.6275 81.7289 46.278C81.8067 46.1614 81.8572 46.0136 82.0633 45.9241C81.8222 46.8225 81.6044 47.6625 81.3983 48.5064C81.1339 49.6069 81.5111 50.3964 82.3822 51.0302C83.4594 51.8119 84.6806 52.193 85.9833 52.368C86.975 52.5002 87.8189 52.2397 88.4917 51.4775C90.0044 49.7586 91.315 47.8958 92.4739 45.9241C92.6644 45.5975 92.6917 45.228 92.5906 44.8586V44.8547ZM64.715 40.5808C67.2778 35.8364 69.7433 31.0414 72.6056 26.468C73.3094 25.3441 74.0289 24.2358 74.8961 23.2286C75.0672 23.0264 75.2578 22.8319 75.4639 22.6686C75.8061 22.4002 76.0744 22.5247 76.1328 22.9602C76.1795 23.3025 76.1056 23.633 75.9967 23.9558C75.6467 24.9708 75.1528 25.9197 74.6394 26.8569C72.8156 30.1897 70.5717 33.2425 68.32 36.2914C67.2467 37.7419 66.1228 39.1497 64.9522 40.5225C64.8628 40.6275 64.7694 40.7286 64.6722 40.8375C64.61 40.7208 64.6761 40.6508 64.715 40.5847V40.5808ZM34.615 48.5375C30.4928 53.908 25.6706 58.5125 19.8333 61.993C17.3289 63.4864 14.7467 64.8358 11.9467 65.703C10.7761 66.0647 9.57056 66.1852 8.35722 65.9558C6.17167 65.5397 4.82611 64.023 4.56167 61.7908C4.18056 58.5902 5.43278 56.0819 7.79333 54.0325C9.84667 52.2475 12.2383 51.0264 14.7233 49.9764C18.6628 48.3158 22.7694 47.1919 26.8878 46.0952C30.3839 45.1619 33.9111 44.3997 37.4694 43.7502C37.59 43.7269 37.7183 43.723 37.9439 43.6997C36.8161 45.3836 35.7894 47.013 34.615 48.5414V48.5375ZM43.5828 33.748C42.42 35.7197 41.1211 37.5902 39.6861 39.3675C39.4722 39.6319 39.2311 39.7447 38.9006 39.768C38.0994 39.8264 37.2983 39.8769 36.7967 39.873C34.0978 39.8808 31.7567 39.5464 29.5244 38.6208C26.6389 37.423 24.5272 35.428 23.2283 32.5697C22.1006 30.0886 21.175 27.5491 20.7783 24.8347C20.0472 19.8102 21.175 15.2369 24.1228 11.1264C26.4833 7.83636 29.5089 5.36691 33.3978 4.11858C37.0339 2.94802 40.6972 2.91302 44.2633 4.39858C47.4678 5.73635 49.1672 8.2758 49.6572 11.6669C50.0733 14.5525 49.6183 17.3719 48.8872 20.1486C47.6428 24.8852 46.0872 29.5014 43.5828 33.748ZM54.2383 48.8175C53.9622 49.9958 52.885 50.4625 51.9167 49.743C50.7772 48.8991 50.2289 47.7402 50.4972 46.313C50.7539 44.9519 51.5161 43.9836 52.8889 43.5791C52.9278 43.5675 52.9706 43.5752 53.0989 43.5675C52.64 44.3336 52.4339 45.1075 52.5156 45.9514C52.6128 46.9508 53.0833 47.7169 53.9622 48.1914C54.2694 48.3547 54.3045 48.5219 54.2345 48.8252L54.2383 48.8175Z" fill="white"/>
</g>
<defs>
<clipPath id="clip0_262_1843">
<rect width="276.158" height="70" fill="white"/>
</clipPath>
</defs>
</svg>
