<svg width="316" height="80" viewBox="0 0 316 80" fill="none" xmlns="http://www.w3.org/2000/svg">
<g clip-path="url(#clip0_739_1031)">
<path d="M145.071 0C145.827 0.173333 146.604 0.115556 147.369 0.191111C150.467 0.484444 153.476 1.11556 156.298 2.45778C161.769 5.06222 164.929 9.4 165.747 15.3867C166.898 23.8222 163.044 33.44 156.458 38.7156C153.364 41.1911 149.813 42.7378 146.022 43.7689C142.991 44.5956 139.902 45.1378 136.787 45.5022C136.711 45.5111 136.631 45.5289 136.502 45.5511C138.084 46.8578 138.276 48.6933 138.476 50.4933C138.951 54.8089 141.102 58.0889 144.689 60.4C147.729 62.36 150.764 61.6889 153.382 59.3111C153.644 59.0711 153.52 59 153.267 58.9067C152.324 58.5556 151.48 58.0311 150.72 57.3689C149.4 56.2267 148.773 54.8178 148.929 53.0533C149.116 50.9289 149.791 49.0267 151.333 47.5111C152.72 46.1467 154.627 45.8222 156.116 46.6444C156.476 46.84 156.804 47.0844 156.982 47.4578C157.124 47.7644 157.333 47.8978 157.649 48C159.476 48.5822 160.387 49.9422 160.711 51.7467C160.782 52.1378 160.916 52.2756 161.293 52.2444C161.676 52.2133 162.124 52.3467 162.422 52.1156C162.724 51.88 162.547 51.4222 162.604 51.0622C163.062 48.1778 163.862 45.3822 164.804 42.6222C166.44 37.8311 168.378 33.1733 171.084 28.8711C172.04 27.3556 173.084 25.9022 174.404 24.68C175.356 23.7956 176.382 22.96 177.738 22.8844C179.791 22.7689 181.702 23.2667 183.333 24.5822C184.262 25.3289 184.378 26.3556 184.156 27.44C183.764 29.3422 182.893 31.0489 181.92 32.7022C178.573 38.3689 174.622 43.5822 170.084 48.3467C169.342 49.1289 168.56 49.8711 167.787 50.6267C167.667 50.7422 167.578 50.8667 167.52 51.0222C167.107 52.16 166.76 53.3111 166.698 54.5333C166.689 54.6933 166.684 54.8533 166.698 55.0178C166.72 55.3911 166.84 55.7333 167.213 55.88C167.56 56.0222 167.831 55.8 168.076 55.5822C169.28 54.5156 170.067 53.1511 170.791 51.7422C170.88 51.5733 170.813 51.4311 170.769 51.28C170.031 48.8311 172.347 47.08 174.147 47.5644C175.213 47.8489 176.16 48.1911 176.431 49.4089C176.569 50.0356 176.502 50.6667 176.28 51.2622C176.133 51.6533 176.267 51.7778 176.622 51.8267C177.071 51.8933 177.52 51.9378 177.964 51.8267C178.542 51.6889 178.951 51.4711 179.178 50.7911C179.849 48.7867 181.231 47.3644 183.178 46.5244C183.693 46.3022 184.236 46.2622 184.782 46.4178C186.04 46.7778 187.111 47.4267 187.916 48.4711C188.738 49.5378 188.769 50.3644 188.018 51.4844C187.071 52.9022 185.876 54.0933 184.6 55.2089C184.48 55.3111 184.364 55.4178 184.204 55.5556C184.813 55.8133 185.382 55.68 185.929 55.5556C188.147 55.0356 190.08 53.9289 191.902 52.6044C192.333 52.2933 192.738 51.9467 193.164 51.6311C193.431 51.4311 193.471 51.3111 193.111 51.1644C192.507 50.92 191.982 50.5511 191.578 50.0267C190.907 49.1556 190.853 48.2756 191.409 47.3378C191.591 47.0311 191.787 46.7378 192.036 46.4844C192.831 45.6622 193.898 45.4889 194.738 46.0489C195.6 46.6267 195.947 47.8533 195.511 48.84C195.422 49.0444 195.307 49.2444 195.169 49.4178C194.978 49.6533 195.076 49.7422 195.307 49.8178C195.662 49.9289 196.018 49.8756 196.356 49.7778C197.084 49.56 197.782 49.2756 198.316 48.6933C198.498 48.4933 198.742 48.4756 198.982 48.4933C199.844 48.56 200.6 48.8889 201.262 49.44C201.898 49.9689 202.111 50.6133 201.831 51.4222C201.467 52.4889 200.982 53.5067 200.502 54.5244C200.338 54.8711 200.191 55.2311 200.031 55.5822C199.862 55.96 199.893 56.3289 200.049 56.7022C200.436 57.6356 200.876 57.8178 201.76 57.3422C204.138 56.0622 205.96 54.2267 207.2 51.8267C207.582 51.0844 207.987 50.3556 208.227 49.5422C208.356 49.1111 208.182 49.0978 207.84 49.1378C206.316 49.3156 204.853 49.0933 203.493 48.3689C202.751 47.9733 202.462 47.2889 202.698 46.5511C203.058 45.4267 204.382 45.0889 205.209 45.9378C206.111 46.8622 207.262 47.0667 208.467 47.1689C208.813 47.2 208.796 46.9156 208.844 46.7156C209.333 44.6978 209.884 42.6978 210.52 40.7244C211.929 36.3422 213.476 32.0089 215.751 27.9822C216.538 26.5911 217.373 25.2356 218.6 24.1689C219.698 23.2178 220.853 23.0489 221.973 23.6667C222.924 24.1911 223.142 24.88 222.636 25.84C222.462 26.1689 222.262 26.48 222.053 26.7867C221.422 27.72 220.764 28.6356 220.147 29.5778C217.324 33.8933 215.396 38.6178 213.778 43.4889C213.511 44.2978 213.253 45.1111 213.004 45.9244C212.956 46.0844 212.796 46.2756 212.947 46.4133C213.062 46.52 213.249 46.3956 213.4 46.3644C214.689 46.0889 215.956 45.6978 217.293 45.7422C218 45.7644 218.551 46.2444 218.662 46.9378C218.764 47.5867 218.378 48.2444 217.756 48.4756C217.409 48.6044 217.062 48.56 216.711 48.4667C215.347 48.1022 213.964 48.2578 212.582 48.3422C212.369 48.3556 212.329 48.4889 212.28 48.6533C211.387 51.6133 210.618 54.6 210.382 57.6978C210.373 57.8267 210.347 57.9511 210.333 58.08C210.236 58.8044 210.204 59.52 210.604 60.1867C210.778 60.4756 210.867 60.8089 210.92 61.1467C211.004 61.6622 210.827 61.9733 210.307 62.0622C208.658 62.3422 207.818 61.8844 207.218 60.3956C206.88 59.5511 206.884 58.6667 206.96 57.7778C206.969 57.6889 206.978 57.6 206.996 57.4222C206.764 57.6356 206.591 57.7956 206.418 57.9556C204.116 60.0711 201.48 60.3289 198.809 58.6933C198.031 58.2178 197.373 57.6044 196.76 56.9422C195.844 55.9556 195.751 54.7911 196.049 53.5556C196.209 52.9022 196.404 52.2533 196.596 51.5467C196.102 51.6089 195.649 51.6756 195.187 51.6711C194.911 51.6711 194.889 51.9289 194.796 52.1067C193.644 54.32 192.124 56.2178 190.204 57.8267C188.378 59.3556 186.498 59.6356 184.378 58.4844C182.653 57.5511 181.129 56.4044 179.929 54.8444C179.644 54.4711 179.391 54.0756 179.231 53.6356C179.142 53.3956 179.062 53.3333 178.831 53.4978C177.876 54.1778 176.827 54.5111 175.644 54.2444C175.382 54.1867 175.271 54.3289 175.156 54.52C174.564 55.5022 173.876 56.4133 173.142 57.2889C172.036 58.6089 170.68 59.0133 169.036 58.4978C166.867 57.8178 165.076 56.5911 163.644 54.8356C163.462 54.6133 163.333 54.5422 163.053 54.6622C162.28 54.9911 161.462 55.1733 160.631 55.2844C160.382 55.32 160.231 55.4044 160.111 55.6311C159.382 57 158.378 58.0889 156.973 58.8044C156.556 59.0178 156.236 59.4178 155.862 59.7244C154.107 61.16 152.2 62.2933 149.929 62.6844C148.062 63.0044 146.244 62.7244 144.458 62.1644C141.947 61.3733 139.729 60.08 137.809 58.2756C135.818 56.4089 134.822 54.0889 134.644 51.3867C134.609 50.8444 134.529 50.2978 134.413 49.7644C133.938 47.6578 132.347 46.3778 130.164 46.3111C129.391 46.2889 128.622 46.3467 127.849 46.4C127.573 46.4178 127.467 46.5778 127.356 46.7822C125.631 50.0356 123.898 53.2889 122.173 56.5422C121.44 57.9244 120.764 59.3289 120.471 60.8844C120.449 60.9956 120.431 61.1067 120.422 61.2178C120.338 62.0222 120.071 62.2178 119.271 62.0267C118.751 61.9022 118.267 61.6889 117.813 61.4044C116.804 60.7733 115.916 60.0222 115.338 58.9556C115.129 58.5733 115.102 58.2222 115.267 57.8089C116.08 55.7422 117 53.7244 117.938 51.7111C122.329 42.3067 126.907 33 131.96 23.9289C133.191 21.72 134.458 19.5333 135.924 17.4711C136.804 16.2311 137.853 15.1644 139.28 14.5689C141.062 13.8222 142.88 13.8178 144.693 14.48C144.769 14.5067 144.84 14.5467 144.911 14.5822C145.333 14.8089 145.351 14.9156 145.027 15.2489C143.351 16.96 141.933 18.8711 140.618 20.8622C138.16 24.5733 136.098 28.5022 134.16 32.5022C132.493 35.9333 131.013 39.4444 129.444 42.92C129.413 42.9911 129.387 43.0667 129.329 43.2222C130.187 43.1511 130.991 43.1156 131.791 43.0178C136.48 42.4533 141 41.2311 145.36 39.4222C149.973 37.5067 153.329 34.1778 155.942 30.0178C157.907 26.8933 159.28 23.5289 159.827 19.8622C160.293 16.7067 160.089 13.6267 158.569 10.7467C157.116 8 154.787 6.23556 151.991 5.04C148.627 3.6 145.124 3.17333 141.498 3.65778C136.987 4.26222 132.791 5.75111 128.889 8.08C128.071 8.56889 127.333 9.16 126.658 9.84C125.796 10.7111 124.724 10.8178 123.813 10.1867C123 9.61778 122.836 8.84445 123.391 8.01333C123.889 7.26222 124.578 6.69333 125.324 6.21778C130.213 3.11556 135.493 1.06667 141.244 0.297778C142.036 0.191111 142.836 0.111111 143.627 0.0177778C144.111 0.0177778 144.591 0.0177778 145.076 0.0177778L145.071 0ZM168.729 46.4222C168.76 46.4444 168.796 46.4667 168.827 46.4889C168.987 46.3111 169.151 46.1333 169.307 45.9556C172.76 41.9644 175.778 37.6533 178.547 33.1689C179.538 31.5644 180.444 29.92 181.062 28.1289C181.209 27.7022 181.333 27.2667 181.311 26.8089C181.298 26.5244 181.227 26.2444 180.951 26.12C180.698 26.0044 180.489 26.1822 180.302 26.3378C180.156 26.4622 180.013 26.5956 179.884 26.7378C179.129 27.5778 178.498 28.5111 177.898 29.4667C174.711 34.5422 171.991 39.8711 169.311 45.2222C169.111 45.6178 168.924 46.0222 168.729 46.4222ZM154.64 50.5111C153.604 51.1778 152.813 52.0356 152.48 53.2444C152.009 54.96 153.089 56.5289 154.858 56.7067C155.173 56.7378 155.516 56.7556 155.751 56.4756C156.027 56.1422 156.284 55.7911 156.556 55.4489C156.707 55.2578 156.72 55.1333 156.453 55.0178C156.004 54.8267 155.613 54.5467 155.289 54.1778C154.333 53.0978 154.156 51.8756 154.64 50.5111ZM182.467 53.64C182.493 53.8711 182.471 54.1778 182.698 54.28C182.889 54.3689 183.049 54.1067 183.2 53.9733C184.378 52.9378 185.396 51.76 186.298 50.4756C186.409 50.32 186.489 50.1422 186.573 49.9689C186.636 49.8489 186.662 49.72 186.564 49.6044C186.458 49.48 186.311 49.4756 186.164 49.5333C186.013 49.5911 185.858 49.6356 185.716 49.7111C184.404 50.4133 183.387 51.4133 182.72 52.7556C182.582 53.0311 182.498 53.3244 182.467 53.64Z" fill="#E9222B"/>
<path d="M315.547 52.8711C315.289 51.4577 314.271 50.8577 312.991 50.5377C312.569 50.4311 312.147 50.3288 311.747 50.1644C311.307 49.9822 311.267 49.68 311.587 49.3333C311.84 49.0577 312.169 48.88 312.484 48.6888C312.938 48.4177 313.422 48.1866 313.813 47.8177C314.28 47.3777 314.258 46.9555 313.747 46.5688C313.298 46.2355 312.8 46.0311 312.231 46.0222C310.933 46 309.858 46.5111 308.924 47.3777C307.911 48.3244 307.04 49.4088 306.12 50.44C304.387 52.3733 302.573 54.2177 300.507 55.8044C300.16 56.0711 299.8 56.3155 299.369 56.4266C298.982 56.5244 298.804 56.3511 298.907 55.9644C298.964 55.7511 299.058 55.5377 299.169 55.3466C299.787 54.2355 300.444 53.1466 301.031 52.0222C301.653 50.8355 301.413 50.1066 300.262 49.4C299.929 49.1955 299.573 49.04 299.191 48.9733C298.693 48.8844 298.258 48.8844 297.809 49.28C297.164 49.8444 296.347 50.1422 295.489 50.2711C295.302 50.2977 295.098 50.2933 294.916 50.2533C294.662 50.2 294.547 50.0666 294.778 49.8266C295.013 49.5822 295.204 49.3066 295.347 48.9955C295.742 48.1111 295.56 47.0444 294.916 46.5066C294.28 45.9777 293.262 46.0088 292.449 46.6044C291.898 47.0088 291.453 47.52 291.102 48.1022C290.524 49.0622 290.662 50.0666 291.44 50.88C291.809 51.2666 292.28 51.4977 292.747 51.76C292.689 51.8222 292.667 51.8666 292.627 51.8933C292.369 52.0844 292.111 52.28 291.849 52.4622C289.684 53.9688 287.418 55.2666 284.836 55.9288C284.218 56.0888 283.591 56.1866 282.947 56.0311C282.996 55.8133 283.169 55.7644 283.289 55.6666C284.804 54.4888 286.267 53.2488 287.453 51.7244C288.302 50.6311 288.298 49.6488 287.453 48.5555C286.782 47.6888 285.893 47.1288 284.84 46.8266C284.449 46.7155 284.031 46.68 283.649 46.8133C281.036 47.7466 279.138 49.4311 278.253 52.1155C278.129 52.4844 277.987 52.6844 277.604 52.7466C276.711 52.8844 275.844 52.8088 274.996 52.4977C274.622 52.36 274.507 52.2088 274.729 51.8C275.156 51.0222 275.489 50.2 275.422 49.2755C275.378 48.6311 275.009 48.1333 274.436 47.9822C273.769 47.8088 273.12 47.8622 272.533 48.2488C271.56 48.8844 270.849 49.7377 270.484 50.8533C270.231 51.6222 270.147 52.4133 270.564 53.1466C270.724 53.4311 270.644 53.5733 270.458 53.76C269.809 54.4133 269.151 55.0488 268.449 55.6444C268.178 55.8755 267.902 56.0977 267.573 56.2444C267.369 56.3333 267.156 56.4444 266.942 56.2666C266.733 56.0933 266.76 55.8488 266.827 55.64C266.942 55.2755 267.084 54.9111 267.262 54.5688C267.778 53.5688 268.32 52.5822 268.84 51.5822C269.027 51.2266 269.244 50.8222 269.093 50.4311C268.587 49.1066 267.742 48.0577 266.382 47.52C266.009 47.3733 265.618 47.4088 265.302 47.7155C264.52 48.4844 263.773 49.2844 263.284 50.2844C263.182 50.4888 263.067 50.6755 262.907 50.84C262.129 51.6577 261.369 52.4888 260.573 53.2844C259.831 54.0222 259.076 54.7466 258.191 55.32C258.04 55.4177 257.849 55.6133 257.68 55.4488C257.538 55.3111 257.702 55.1111 257.791 54.9733C258.089 54.4977 258.413 54.0355 258.72 53.5644C259.516 52.3333 260.462 51.2088 261.142 49.9022C261.431 49.3511 261.391 48.8666 261.027 48.3733C260.409 47.5377 259.644 46.8888 258.671 46.5155C257.84 46.1955 257.511 46.2844 256.947 46.9733C255.8 48.3777 254.836 49.9111 254.124 51.5688C253.76 52.4222 253.196 52.6666 252.391 52.6844C252.262 52.6844 252.133 52.6755 252.004 52.6844C251.578 52.7333 251.431 52.5911 251.427 52.1288C251.404 50.5555 250.72 48.9244 248.769 48.3644C248.604 48.3155 248.489 48.2666 248.427 48.08C248.142 47.2355 247.462 46.8577 246.649 46.7022C245.413 46.4666 244.276 46.7911 243.271 47.5066C241.067 49.0755 239.893 51.28 239.378 53.8933C239.084 55.3733 239.48 56.6266 240.502 57.7111C241.258 58.5066 242.156 59.0844 243.191 59.4488C244.222 59.8133 245.222 59.8088 246.244 59.3866C247.524 58.8577 248.693 58.1422 249.471 57.0177C250.164 56.0177 251.009 55.5466 252.173 55.4355C252.524 55.4044 252.56 55.4711 252.52 55.7555C252.436 56.3511 252.671 56.8177 253.098 57.2177C253.787 57.8622 254.569 58.3555 255.444 58.7155C256.16 59.0088 256.8 58.9066 257.387 58.4355C257.876 58.0444 258.36 57.64 258.831 57.2266C259.924 56.2711 260.862 55.16 261.884 54.1333C261.969 54.0444 262.053 53.9022 262.196 53.9422C262.338 53.9822 262.28 54.1333 262.28 54.2355C262.289 56.3866 263.467 57.8 265.191 58.8711C265.622 59.1377 266.08 59.2 266.582 59.1066C267.493 58.9377 268.276 58.5066 269.004 57.9644C270.116 57.1333 271.142 56.2044 272.107 55.2088C272.307 55.0044 272.453 54.96 272.724 55.08C273.551 55.4444 274.413 55.5466 275.32 55.4177C276.258 55.28 277.124 54.96 277.947 54.5022C278.111 54.4133 278.244 54.2622 278.382 54.5688C279.156 56.2666 280.422 57.52 281.973 58.5066C284.422 60.0622 285.951 60.0222 288.329 58.3733C290.622 56.7822 292.489 54.7822 294.031 52.4666C294.124 52.3244 294.173 52.0888 294.378 52.1022C294.858 52.1244 295.329 51.9911 295.813 51.9866C295.813 52.2311 295.684 52.4044 295.609 52.5955C295.342 53.2488 295.018 53.88 294.822 54.5644C294.404 56.0533 294.729 57.0222 295.96 57.9511C296.489 58.3555 297.098 58.6088 297.702 58.8755C299.302 59.5777 300.689 59.2977 301.956 58.1111C303.133 57.0044 304.187 55.7911 305.173 54.5155C306.107 53.3066 306.929 52.0088 307.916 50.8355C308.129 50.5822 308.231 50.5466 308.409 50.8755C308.729 51.4755 309.213 51.92 309.858 52.1644C310.631 52.4622 310.956 53.0622 311.004 53.8488C311.071 54.9466 310.751 55.9422 310.204 56.88C309.622 57.8844 308.729 58.32 307.596 58.32C306.831 58.32 306.249 57.8888 306.111 57.1377C306.022 56.6577 305.773 56.5111 305.342 56.5688C304.898 56.6311 304.671 56.9155 304.711 57.3777C304.751 57.8622 304.964 58.28 305.28 58.6311C306.538 60.0133 308.138 60.4977 309.924 60.1422C313.022 59.5244 314.902 57.6177 315.529 54.5022C315.538 54.4577 315.547 54.4133 315.556 54.3688C315.649 53.8177 315.569 53.1111 315.538 52.8622L315.547 52.8711ZM246.764 55.8133C246.196 56.4133 245.591 56.9644 244.822 57.2933C244.058 57.6222 243.538 57.3111 243.431 56.4711C243.356 55.8488 243.507 55.2577 243.711 54.68C244.013 53.8355 244.409 53.0444 244.991 52.2711C245.147 52.7466 245.258 53.1644 245.422 53.5555C245.711 54.2622 246.133 54.8888 246.72 55.3866C246.884 55.5288 246.938 55.6266 246.764 55.8088V55.8133ZM281.849 54.6133C281.769 54.6755 281.662 54.7911 281.556 54.6977C281.444 54.6 281.436 54.44 281.427 54.2666C281.458 53.9511 281.564 53.6311 281.742 53.3377C282.631 51.88 283.876 50.8222 285.404 50.08C285.449 50.0577 285.493 50.0444 285.542 50.0311C285.742 49.96 285.978 49.8533 286.129 50.0222C286.298 50.2133 286.116 50.4222 285.991 50.5822C284.796 52.1111 283.396 53.44 281.849 54.6088V54.6133Z" fill="#E9222B"/>
<path d="M243.302 0.271106C249.04 0.248884 254.56 1.27111 259.747 3.81777C262.587 5.21333 265.204 6.93777 267.311 9.32888C270.12 12.5156 271.627 16.2622 271.653 20.5111C271.698 27.56 269.169 33.64 264.28 38.6755C260.72 42.3422 256.258 44.4311 251.28 45.4222C246.129 46.4489 241.04 46.0978 236.018 44.5955C235.284 44.3778 235.458 44.3022 235.08 45.0311C233.4 48.2578 232.133 51.6356 231.311 55.1778C231.013 56.4622 230.662 57.7422 230.782 59.08C230.804 59.3511 230.813 59.6311 230.884 59.8933C231.004 60.3289 230.827 60.4356 230.427 60.4267C229.409 60.3956 228.516 60.0089 227.68 59.4711C225.969 58.3733 225.498 57.0355 225.916 54.7822C226.564 51.2933 227.796 48.0089 229.231 44.7822C231.449 39.8 233.671 34.8222 236.124 29.9511C236.92 28.3689 237.729 26.7956 238.724 25.3244C240 23.4444 242.196 22.6311 244.396 23.2044C244.947 23.3467 244.973 23.4133 244.716 23.9111C242.88 27.4578 241.316 31.1244 239.68 34.7644C238.533 37.3155 237.404 39.88 236.267 42.4356C236.018 42.9956 236.018 42.9778 236.631 43.12C240.582 44.0489 244.431 43.5511 248.227 42.3155C254.991 40.1111 259.96 35.7555 263.298 29.5333C264.676 26.9644 265.738 24.2489 266.107 21.3155C266.631 17.1911 265.471 13.6089 262.604 10.6044C260.227 8.10666 257.253 6.56888 254.04 5.44888C250.253 4.13333 246.369 3.38666 242.342 3.61333C234.013 4.07999 227.009 7.40444 221.267 13.4356C221.133 13.5733 220.996 13.7111 220.836 13.8222C220.213 14.2489 219.658 14.1467 219.204 13.5333C218.36 12.3867 218.4 10.5778 219.396 9.55999C221.044 7.87555 222.822 6.33777 224.964 5.28888C227.142 4.22222 229.316 3.13777 231.578 2.23999C234.693 1.00888 237.933 0.399995 241.271 0.284439C241.947 0.262217 242.622 0.284439 243.298 0.284439L243.302 0.271106Z" fill="#E9222B"/>
<path d="M105.818 51.2621C105.636 50.6133 105.053 50.431 104.56 50.8888C104.253 51.1733 103.991 51.5022 103.733 51.831C102.484 53.3955 101.151 54.8799 99.6133 56.1644C99.3556 56.3822 99.0755 56.5733 98.7911 56.7555C98.6133 56.871 98.3911 56.951 98.2 56.8177C97.9911 56.6755 97.9778 56.4355 98.0356 56.2044C98.1022 55.9377 98.1689 55.6755 98.2444 55.4133C98.7156 53.8088 99.28 52.2355 99.68 50.6088C99.8933 49.751 99.6222 49.0933 98.9289 48.5821C98.4489 48.2266 97.9289 47.9422 97.3644 47.7333C95.9467 47.2044 95.5867 47.3022 94.6267 48.4622C93.2578 50.111 92.0667 51.8933 90.7511 53.5866C90.5111 53.8977 90.2978 54.2399 89.8755 54.5288C90.0356 53.7199 90.1778 53.0044 90.3156 52.2844C90.7244 50.1422 89.68 48.8177 88.0044 47.9955C87.3289 47.6666 86.9511 47.8088 86.52 48.4266C86.0267 49.1288 85.7022 49.9422 85.6844 50.7644C85.6533 52.271 84.8489 53.1822 83.72 53.9955C82.5555 54.831 81.4711 55.7733 80.1511 56.3688C79.9556 56.4577 79.72 56.5999 79.5244 56.3866C79.3511 56.1999 79.4267 55.9644 79.5067 55.7466C79.7289 55.1555 80.0533 54.6177 80.3467 54.0666C80.8844 53.0622 81.4444 52.0622 81.9733 51.0488C82.16 50.6933 82.3778 50.2799 82.1822 49.8977C81.5244 48.6355 80.6756 47.5333 79.32 46.9422C78.8667 46.7466 78.4089 46.7999 77.9778 47.0577C77.4311 47.3821 76.9778 47.8088 76.5378 48.2621C74.8222 50.0355 73.2889 51.9644 71.7111 53.8533C71.5956 53.991 71.5067 54.1777 71.28 54.2355C71.2044 54.0577 71.2311 53.9022 71.2667 53.751C71.4267 53.0933 71.5955 52.4399 71.7467 51.7822C71.8133 51.4844 71.9778 51.2666 72.1955 51.0577C74.3511 49.0266 76.4444 46.9288 78.4533 44.7466C81.5644 41.3688 84.56 37.8933 87.1022 34.0577C88.0889 32.5688 89.0044 31.031 89.5111 29.2977C89.7111 28.6177 89.7733 27.9333 89.4444 27.271C88.6711 25.7377 87.52 24.5777 85.96 23.8577C84.2444 23.0666 82.6044 23.1377 81.0622 24.3377C80.0622 25.1199 79.2355 26.0577 78.4844 27.071C76.1333 30.2488 74.3822 33.7555 72.8355 37.3733C70.9289 41.8266 69.3022 46.3821 68.0844 51.0755C67.7555 52.3333 67.6578 52.4266 66.3511 52.4177C66.2889 52.4177 66.2222 52.4088 66.16 52.4133C65.8711 52.4355 65.7422 52.3244 65.6889 52.0133C65.5111 51.0133 65.0755 50.1199 64.4 49.351C64.3244 49.2666 64.2489 49.1777 64.2044 49.0799C63.2756 47.0933 61.6133 46.2888 59.5244 46.1244C57.7689 45.9866 56.0222 46.071 54.2711 46.1999C53.7511 46.2399 53.2311 46.271 52.6489 46.311C53.1689 45.511 53.6755 44.791 54.1244 44.0355C57.3155 38.6755 59.6844 32.9422 61.6578 27.0488C62.8622 23.4488 63.6711 19.7599 63.6178 15.9288C63.5822 13.4133 63.1378 10.9955 61.9244 8.76882C60.2844 5.75549 57.7511 3.72882 54.6222 2.44882C50.0267 0.551041 45.2044 0.0799293 40.3155 0.733263C33.8933 1.59548 28.4222 4.51993 24.0578 9.26215C17.5067 16.3777 15.6711 24.6933 18.4978 33.9422C19.9822 38.7999 23.0533 42.4266 27.6711 44.671C31 46.2933 34.44 47.551 38.1333 48.0844C38 48.1555 37.8667 48.2088 37.7333 48.231C34.1156 48.8266 30.5111 49.4933 26.9289 50.271C20.9644 51.5644 15.1778 53.3644 9.7511 56.2044C8.0711 57.0844 6.36888 57.9333 4.91999 59.1955C2.72444 61.1066 1.0311 63.351 0.284436 66.2133C0.21777 66.471 0.164436 66.7288 0.115548 66.991C0.079992 67.2266 -0.213341 69.3733 0.315548 71.8799C1.60444 76.5599 5.04888 79.4488 9.79999 79.9422C9.87999 79.951 10.4222 79.991 10.9422 79.9955C11.4222 79.9955 11.88 79.9644 11.9289 79.9599C15.8 79.631 19.4133 78.4622 22.8178 76.6088C25.92 74.9199 28.6311 72.6799 31.3911 70.5244C34.6755 67.9555 37.4933 64.8933 40.2933 61.8222C42.5378 59.3599 44.84 56.9422 46.7022 54.1599C47.84 52.4577 49.0578 50.8177 50.3067 49.1999C50.5378 48.8977 50.7867 48.7288 51.1778 48.6977C51.7556 48.6533 52.3244 48.5288 52.8978 48.4666C53.9644 48.3555 55.0044 48.0399 56.1067 48.1199C56.0933 48.1777 56.0933 48.231 56.0711 48.2621C55.1911 49.4844 54.7333 50.8621 54.5778 52.3422C54.4356 53.7244 54.48 55.0933 55.36 56.271C56.4444 57.7244 57.8622 58.7155 59.6133 59.1999C60.3378 59.3999 61.0622 59.4355 61.7911 59.151C63.4 58.5333 64.4889 57.3866 65.2267 55.8622C65.3244 55.6622 65.3778 55.4488 65.6578 55.3999C66.1155 55.3244 66.5733 55.2266 67.0267 55.1199C67.2756 55.0577 67.2978 55.1777 67.2889 55.3688C67.2755 55.7377 67.2533 56.111 67.2622 56.4799C67.2711 57.1422 67.56 57.6622 68.1422 57.991C69.3244 58.6577 71.3467 58.3199 72.2489 57.3021C72.9244 56.5466 73.5867 55.7777 74.2622 55.0177C74.7067 54.5155 75.16 54.0221 75.6444 53.4844C75.6844 53.791 75.7022 54.0444 75.7511 54.2888C76.2756 56.8355 79.1155 59.2488 82.3244 58.4177C83.4667 58.1199 84.4044 57.4933 85.2622 56.7244C85.4933 56.5199 85.6133 56.4666 85.7822 56.791C86 57.2133 86.3422 57.5422 86.76 57.7688C88.5911 58.7599 88.9378 58.4488 90 57.3288C91.2933 55.9688 92.3511 54.431 93.4044 52.8888C93.4933 52.7555 93.5511 52.5866 93.7867 52.4844C93.5111 53.511 93.2622 54.471 93.0267 55.4355C92.7244 56.6933 93.1555 57.5955 94.1511 58.3199C95.3822 59.2133 96.7778 59.6488 98.2667 59.8488C99.4 59.9999 100.364 59.7022 101.133 58.831C102.862 56.8666 104.36 54.7377 105.684 52.4844C105.902 52.111 105.933 51.6888 105.818 51.2666V51.2621ZM73.96 46.3777C76.8889 40.9555 79.7067 35.4755 82.9778 30.2488C83.7822 28.9644 84.6044 27.6977 85.5956 26.5466C85.7911 26.3155 86.0089 26.0933 86.2444 25.9066C86.6356 25.5999 86.9422 25.7422 87.0089 26.2399C87.0622 26.631 86.9778 27.0088 86.8533 27.3777C86.4533 28.5377 85.8889 29.6222 85.3022 30.6933C83.2178 34.5022 80.6533 37.991 78.08 41.4755C76.8533 43.1333 75.5689 44.7421 74.2311 46.311C74.1289 46.431 74.0222 46.5466 73.9111 46.671C73.84 46.5377 73.9156 46.4577 73.96 46.3822V46.3777ZM39.56 55.471C34.8489 61.6088 29.3378 66.871 22.6667 70.8488C19.8044 72.5555 16.8533 74.0977 13.6533 75.0888C12.3155 75.5022 10.9378 75.6399 9.5511 75.3777C7.05333 74.9022 5.51555 73.1688 5.21333 70.6177C4.77777 66.9599 6.20888 64.0933 8.90666 61.751C11.2533 59.711 13.9867 58.3155 16.8267 57.1155C21.3289 55.2177 26.0222 53.9333 30.7289 52.6799C34.7244 51.6133 38.7556 50.7422 42.8222 49.9999C42.96 49.9733 43.1067 49.9688 43.3644 49.9422C42.0756 51.8666 40.9022 53.7288 39.56 55.4755V55.471ZM49.8089 38.5688C48.48 40.8222 46.9956 42.9599 45.3555 44.991C45.1111 45.2933 44.8355 45.4222 44.4578 45.4488C43.5422 45.5155 42.6267 45.5733 42.0533 45.5688C38.9689 45.5777 36.2933 45.1955 33.7422 44.1377C30.4444 42.7688 28.0311 40.4888 26.5467 37.2222C25.2578 34.3866 24.2 31.4844 23.7467 28.3822C22.9111 22.6399 24.2 17.4133 27.5689 12.7155C30.2667 8.95549 33.7244 6.13326 38.1689 4.7066C42.3244 3.36882 46.5111 3.32882 50.5867 5.0266C54.2489 6.55549 56.1911 9.45771 56.7511 13.3333C57.2267 16.631 56.7067 19.8533 55.8711 23.0266C54.4489 28.4399 52.6711 33.7155 49.8089 38.5688ZM61.9867 55.791C61.6711 57.1377 60.44 57.671 59.3333 56.8488C58.0311 55.8844 57.4044 54.5599 57.7111 52.9288C58.0044 51.3733 58.8755 50.2666 60.4444 49.8044C60.4889 49.791 60.5378 49.7999 60.6844 49.791C60.16 50.6666 59.9244 51.551 60.0178 52.5155C60.1289 53.6577 60.6667 54.5333 61.6711 55.0755C62.0222 55.2621 62.0622 55.4533 61.9822 55.7999L61.9867 55.791Z" fill="#E9222B"/>
</g>
<defs>
<clipPath id="clip0_739_1031">
<rect width="315.609" height="80" fill="white"/>
</clipPath>
</defs>
</svg>
